<?xml version="1.0" ?><!DOCTYPE svg  PUBLIC '-//W3C//DTD SVG 1.1//EN'  'http://www.w3.org/Graphics/SVG/1.1/DTD/svg11.dtd'><svg enable-background="new 0 0 30 30" height="30px" id="Capa_1" version="1.1" viewBox="0 0 30 30" width="30px" xml:space="preserve" xmlns="http://www.w3.org/2000/svg" xmlns:xlink="http://www.w3.org/1999/xlink"><path d="M23,12.7c-0.4,0.1-0.6,0.6-0.4,1c0.5,1.2,0.7,2.5,0.7,3.8c0,6-4.9,10.8-10.8,10.8S1.7,23.5,1.7,17.5  S6.5,6.7,12.5,6.7c1.1,0,2.3,0.2,3.4,0.5c0.4,0.1,0.8-0.1,0.9-0.5c0.1-0.4-0.1-0.8-0.5-0.9c-1.2-0.4-2.5-0.6-3.8-0.6  c-6.8,0-12.3,5.5-12.3,12.3s5.5,12.3,12.3,12.3s12.3-5.5,12.3-12.3c0-1.5-0.3-3-0.8-4.4C23.9,12.8,23.4,12.6,23,12.7z M12.5,15  c0.4,0,0.8-0.3,0.8-0.8s-0.3-0.8-0.8-0.8c-2.2,0-4,1.8-4,4c0,2.2,1.8,4,4,4s4-1.8,4-4c0-0.4-0.3-0.8-0.8-0.8S15,17.1,15,17.5  c0,1.4-1.1,2.5-2.5,2.5S10,18.9,10,17.5C10,16.1,11.1,15,12.5,15z M16.2,11.1c0.2-0.4,0-0.8-0.4-1c-1-0.5-2.2-0.7-3.3-0.7  C8,9.4,4.3,13,4.3,17.5s3.7,8.2,8.2,8.2s8.2-3.7,8.2-8.2c0-1.2-0.2-2.3-0.7-3.3c-0.2-0.4-0.6-0.6-1-0.4c-0.4,0.2-0.5,0.6-0.4,1  c0.4,0.9,0.6,1.8,0.6,2.7c0,3.7-3,6.7-6.7,6.7s-6.7-3-6.7-6.7s3-6.7,6.7-6.7c1,0,1.9,0.2,2.7,0.6C15.6,11.6,16,11.4,16.2,11.1z   M29.8,6.1c-0.1-0.3-0.3-0.5-0.6-0.5l-4.1-0.7l-0.7-4.1c0-0.3-0.2-0.5-0.5-0.6c-0.3-0.1-0.6,0-0.8,0.2l-4.9,4.9  c-0.2,0.2-0.3,0.4-0.2,0.7l0.8,4.2l-6.3,6.3c0,0-0.1,0-0.1,0c-0.6,0-1.1,0.5-1.1,1.1s0.5,1.1,1.1,1.1c0.6,0,1.1-0.5,1.1-1.1  c0,0,0,0,0,0l6.4-6.4l4.1,0.8c0,0,0.1,0,0.1,0c0.2,0,0.4-0.1,0.5-0.2l4.9-4.9C29.8,6.7,29.9,6.4,29.8,6.1z M19.6,6l3.6-3.6l0.5,2.8  l-3.5,3.5L19.6,6z M24,10.4l-2.7-0.5l3.5-3.5l2.7,0.5L24,10.4z" fill="#262324"/></svg>